<?xml version="1.0" encoding="UTF-8" standalone="no"?>
<!-- Created with Inkscape (http://www.inkscape.org/) -->

<svg
   version="1.1"
   id="svg1"
   width="1024"
   height="1024"
   viewBox="0 0 1024 1024"
   sodipodi:docname="empty box.png"
   xmlns:inkscape="http://www.inkscape.org/namespaces/inkscape"
   xmlns:sodipodi="http://sodipodi.sourceforge.net/DTD/sodipodi-0.dtd"
   xmlns="http://www.w3.org/2000/svg"
   xmlns:svg="http://www.w3.org/2000/svg">
  <defs
     id="defs1" />
  <sodipodi:namedview
     id="namedview1"
     pagecolor="#ffffff"
     bordercolor="#000000"
     borderopacity="0.25"
     inkscape:showpageshadow="2"
     inkscape:pageopacity="0.0"
     inkscape:pagecheckerboard="0"
     inkscape:deskcolor="#d1d1d1" />
  <g
     inkscape:groupmode="layer"
     inkscape:label="Image"
     id="g1">
    <path
       style="fill:#483e37;stroke:none;stroke-width:1.33304"
       d="m 774.16865,426.10419 c 22.26483,-22.26487 44.94182,-44.18784 66.87819,-66.77125 6.45151,-6.64168 20.73036,-16.04479 19.54622,-26.54045 -0.84075,-7.45067 -8.42681,-11.06079 -14.44028,-13.92905 -14.87179,-7.09341 -29.22289,-15.11085 -43.9903,-22.38912 -48.47451,-23.89105 -96.96861,-47.82188 -145.30129,-71.98819 -12.80917,-6.40458 -25.85603,-12.26145 -38.65814,-18.66255 -6.28501,-3.14253 -13.99651,-8.56272 -21.32863,-8.14224 -8.57384,0.49176 -15.75586,10.89685 -21.32863,16.46959 l -49.32245,49.32246 c -4.60819,4.60812 -14.33617,18.58851 -21.32863,18.58851 -6.99246,0 -16.72058,-13.98039 -21.32863,-18.58851 -16.9484,-16.94833 -34.45294,-33.47935 -51.03608,-50.76964 -7.29639,-7.60746 -16.07485,-16.95525 -27.61324,-13.6997 -23.30886,6.57659 -47.66482,22.70796 -69.31805,33.66957 -42.95959,21.74765 -86.23431,42.91958 -129.30481,64.45487 -15.10734,7.55366 -30.24773,15.04598 -45.32334,22.66272 -5.86031,2.96085 -13.56141,6.77325 -13.91986,14.33326 -0.44577,9.40492 12.02415,18.09993 17.91898,23.99471 15.71413,15.71423 31.02396,32.01507 47.60883,46.81064 5.03116,4.48835 17.18381,12.78412 18.01656,19.84133 0.86474,7.32854 -15.81891,20.123 -20.5284,25.32775 -16.60581,18.35239 -34.25818,35.81754 -51.76219,53.32157 -6.3542,6.35422 -17.70529,14.42455 -19.00514,23.99471 -2.18312,16.07474 31.83271,26.00541 42.99985,31.66789 13.82788,7.01172 27.45714,14.38656 41.32422,21.32449 5.28283,2.64313 14.10462,5.21287 16.52515,11.13345 3.08572,7.54732 0.80436,19.77592 0.80436,27.85388 v 61.31981 c 0,12.09792 -2.94082,26.77493 8.0229,34.94087 26.14143,19.47046 60.6085,31.27467 89.28897,46.78597 35.84703,19.38725 71.76044,38.5614 107.97619,57.25381 17.05157,8.80105 33.87573,19.8908 51.98853,26.39548 20.69517,7.43194 45.07139,9.7275 66.65197,14.05142 l 61.31981,12.26369 c 8.64142,1.72815 19.16417,5.97042 27.99382,5.04102 14.65104,-1.54206 29.78463,-14.55223 42.65726,-21.09612 35.44418,-18.0184 70.14253,-37.39856 105.31011,-55.9547 38.20757,-20.16018 76.28051,-40.59114 114.64138,-60.46199 7.2013,-3.73038 36.4776,-13.64544 36.4776,-22.99697 0,-4.24516 -6.7815,-6.3775 -9.8168,-7.89946 l -31.993,-15.99647 c -36.08187,-18.04094 -72.01074,-36.37545 -107.97614,-54.65876 -8.76727,-4.45695 -32.76651,-12.43346 -34.4616,-23.0073 -1.02098,-6.36904 -2.00982,-19.42728 1.17254,-25.16722 3.53202,-6.37034 13.7739,-9.37407 19.95866,-12.46649 17.68877,-8.8444 35.65001,-17.17492 53.32158,-26.01071 6.957,-3.47847 18.01962,-7.62316 22.64834,-14.0895 7.92758,-11.07535 -8.26845,-24.25181 -14.87646,-31.55472 -14.90991,-16.47814 -31.16592,-31.73112 -46.31072,-47.98942 -9.87742,-10.60346 -18.89396,-23.61515 -30.77921,-31.99294 m -283.93737,-129.30482 -177.29424,87.65148 -45.32333,21.94984 -18.66255,6.61792 -22.66167,-20.24041 -57.32069,-57.32069 174.62815,-86.97667 46.65638,-23.067 18.66255,-7.27307 22.66166,20.00487 58.65374,58.65373 m 347.92326,37.3251 -19.99559,22.66167 -38.65814,38.65814 -21.32863,17.95487 -19.99559,-8.32735 -49.32245,-25.04493 -169.296,-84.56054 c 15.02575,-21.33049 38.83903,-38.86756 57.32069,-57.32069 5.82018,-5.81122 14.17861,-18.03509 22.66167,-19.66542 6.45578,-1.24078 14.60918,5.12492 19.99559,7.96016 14.50413,7.63455 29.3298,14.71021 43.9903,22.04046 57.34602,28.67296 114.95611,62.16297 174.62815,85.64363 M 515.55902,314.12888 739.50963,424.77115 v 2.66608 c -31.31376,16.4761 -63.00464,32.49804 -94.64579,48.31861 -14.59892,7.29941 -31.53398,19.31572 -47.98942,20.99943 l -22.31708,-49.32245 -37.37762,-81.3154 -16.47477,-35.99206 -5.14593,-15.99648 m -29.32686,239.94708 c -23.80635,33.79594 -60.04436,64.04349 -89.31364,93.31276 h -1.33304 L 324.9344,611.06746 160.97056,527.41518 v -2.66608 l 62.65285,-62.65285 24.11401,-23.0505 18.54325,6.72483 45.32334,22.66167 174.62815,85.64371 m 359.92062,-23.9947 -169.296,84.98532 -45.32334,23.32005 -17.32951,7.53333 -23.9947,-21.19291 -46.77569,-47.99039 -19.87628,-22.6607 c 58.80836,-24.48434 114.58379,-57.52458 171.96207,-85.16228 14.23966,-6.85893 28.58636,-13.96413 42.65726,-21.18877 5.48799,-2.81774 13.48436,-9.17457 19.976,-8.36543 8.63889,1.07683 18.29383,15.54711 24.03376,21.4047 13.42264,13.69792 26.40938,27.76 39.97172,41.32325 8.24818,8.24883 19.0274,17.33976 23.99471,27.99383 m -350.58935,41.32421 v 253.27748 l -49.32245,-24.98319 -123.97266,-65.33429 -43.9903,-23.28296 -18.62562,-11.8452 -0.0373,-27.85389 v -73.31716 c 34.54958,10.9333 68.84282,34.63682 101.31099,50.98566 9.91861,4.99442 27.10895,18.7955 38.65814,15.74034 12.73039,-3.36757 23.79902,-20.09518 32.21916,-29.4009 19.21923,-21.24043 41.08681,-46.64644 63.75967,-63.98589 m 18.66255,1.33304 h 1.33304 c 19.25042,25.26591 45.52943,46.86255 67.98501,69.31805 7.14189,7.14198 16.85948,21.47638 27.61324,22.68217 12.49085,1.40057 29.60414,-11.6239 40.37176,-17.02082 32.00188,-16.04009 65.53675,-39.72977 99.97795,-49.65165 l -1.33304,73.31716 -1.37009,30.13944 -17.29246,10.77334 -45.32333,22.74392 -121.30658,61.9782 -51.98854,26.33159 1.33304,-175.96119 v -53.32158 z"
       id="path1"
       sodipodi:nodetypes="csssssssscscsssssccsscscsssssssssccssssscsssssscsscccccccccccccccccccssssccccscccccccccccccccccccccccssssscccccccccssscccssscccccccccc" />
    <path
       d="m 422.23529,135.34162 c 2.91583,-0.31369 6.01889,-0.44449 8.57181,1.26946 7.69077,5.16334 4.93102,15.93297 -3.3168,18.58538 -4.14199,1.33201 -8.62811,0.32908 -12.54617,-1.23753 0.12344,3.55408 0.88308,7.49772 0.35539,11.02479 -0.22772,1.5224 -1.87441,3.35123 -3.29711,1.67907 -1.95873,-2.30209 -0.0806,-6.09225 -1.8756,-8.68873 0.0431,2.20236 0.34539,5.31345 -0.72068,7.32132 -0.74064,1.3953 -2.48005,1.53006 -3.15675,-0.009 -1.25079,-2.84594 0.0967,-7.18109 -0.62179,-10.33681 -0.64119,1.4745 -0.23455,2.8362 -0.43675,4.39675 -0.28088,2.16766 -3.01169,3.90278 -3.99925,1.1442 -1.08497,-3.0306 1.02263,-6.68703 -0.53459,-9.62024 -1.40895,-2.65397 -7.43142,-1.31528 -9.52469,-5.04184 -4.71015,-8.3853 5.90908,-13.41326 12.296,-9.11875 1.0747,-5.32299 0.81668,-13.41963 4.63866,-17.51909 5.44601,-5.84136 15.21616,-3.74613 16.96411,4.35498 0.91772,4.25338 -1.69408,7.89148 -2.79579,11.79672 m 126.05985,58.67777 c 1.55039,1.19794 4.04196,5.16888 0.30274,5.52645 -1.71869,0.16434 -3.82738,-1.47213 -5.10544,-2.46107 -1.79698,-1.39045 -3.33574,-5.11031 0.40431,-5.21004 1.56101,-0.0416 3.22668,1.23934 4.39839,2.14466 m -11.90803,-6.48021 c 1.42126,1.83223 -0.04,3.92263 -2.17992,3.90818 -1.91414,-0.0133 -5.57514,-1.85904 -6.74026,-3.39126 -1.20096,-1.57934 0.21742,-3.57692 2.02167,-3.62448 1.81459,-0.0479 5.77944,1.66489 6.89851,3.10756 M 409.02417,137.76811 c 5.72043,0.42816 12.81239,-8.3379 9.92092,-14.18963 -3.47738,-7.03748 -7.95606,2.56469 -8.40661,5.75439 -0.4009,2.8384 -0.71602,5.67411 -1.51431,8.43524 m 149.56054,64.60902 c 1.39625,1.00093 3.53052,2.67281 4.02572,4.38246 0.66551,2.29759 -1.89026,3.34912 -3.64509,2.32511 -1.50189,-0.8764 -4.32398,-3.08253 -4.59412,-4.90119 -0.38663,-2.60328 2.6009,-2.9624 4.21349,-1.80638 m -37.86273,-20.95179 c 1.25157,1.40597 0.47077,3.61795 -1.3511,3.96987 -1.92491,0.37182 -6.84972,-0.9212 -8.17266,-2.4073 -1.25151,-1.40589 -0.4708,-3.61792 1.35111,-3.96987 1.92484,-0.37184 6.84975,0.92123 8.17265,2.4073 m 48.42269,31.61041 c 1.44506,0.89115 3.41415,3.20711 3.71954,4.8951 0.42217,2.33352 -1.77379,3.44217 -3.67231,2.3959 -1.56708,-0.86364 -3.39545,-2.93112 -3.66759,-4.74644 -0.30883,-2.06001 1.78106,-3.67881 3.62036,-2.54456 m -64.59385,-35.9905 c 1.16171,1.35469 0.25996,3.26603 -1.26172,3.81961 -1.9848,0.72212 -7.07426,-0.14309 -8.32852,-2.00372 -2.99503,-4.44283 7.67125,-4.05365 9.59024,-1.81589 m -16.37341,-2.89771 c 1.34198,1.36754 0.34917,3.25349 -1.24658,3.77952 -1.98114,0.65308 -6.67594,0.0533 -8.09368,-1.6217 -3.76212,-4.44515 7.28053,-4.25675 9.34026,-2.15782 m 90.49636,51.36778 c 2.62837,2.5018 3.13272,10.3578 -1.48699,6.36162 -2.97684,-2.57504 -2.80761,-10.4494 1.48699,-6.36162 M 407.08779,144.93683 c 4.62236,2.32419 11.42797,5.56678 16.68842,5.20006 2.92074,-0.20362 6.1132,-2.15091 5.78037,-5.49998 -0.25545,-2.57062 -2.47344,-3.67534 -4.82589,-3.60196 -4.98236,0.15544 -13.4438,1.20047 -17.6429,3.90188 m 65.33091,26.66144 c 2.45514,4.82774 -8.63263,4.36715 -10.10804,1.17303 -2.36944,-5.12954 8.69767,-3.94637 10.10804,-1.17303 m 113.30317,66.2404 c 2.41148,1.89514 3.42746,10.60013 -1.08375,7.48002 -1.49938,-1.03704 -2.87481,-4.10602 -2.56342,-5.91587 0.2905,-1.68823 2.23075,-2.67728 3.64717,-1.56415 M 455.96271,168.09043 c 2.9118,4.87664 -8.53435,3.68777 -10.18954,0.98037 -3.06751,-5.01748 8.56678,-3.6982 10.18954,-0.98037 m -16.31127,-4.95547 c 0.92621,1.45524 0.0284,3.47017 -1.66388,3.75044 -1.78674,0.29587 -6.86437,-1.43473 -7.83521,-3.00948 -2.91969,-4.73591 7.90337,-3.24807 9.49909,-0.74096 m 152.07902,88.84636 c 2.22699,2.76803 0.73872,10.56678 -2.93911,6.22988 -2.4865,-2.9321 -0.53015,-10.54205 2.93911,-6.22988 m 2.76635,14.48748 c 2.60399,2.24755 1.73471,12.03405 -2.49198,8.24674 -2.33575,-2.09294 -1.25131,-11.4777 2.49198,-8.24674 m 1.74804,18.02757 c 1.22861,1.83452 0.90119,6.78934 0.0619,8.76664 -0.7491,1.76485 -2.93612,1.95386 -3.99899,0.33286 -1.29062,-1.96836 -0.79568,-6.58334 0.2341,-8.60911 0.77589,-1.52643 2.62074,-2.10632 3.70297,-0.49039 m -1.36742,19.8517 c 1.38917,2.4469 -2.32994,14.26566 -5.64772,9.58103 -1.35166,-1.90856 0.55022,-7.89978 1.81114,-9.66559 0.97685,-1.36802 2.94138,-1.49219 3.83658,0.0845 m -4.72227,19.53465 c 1.31935,2.38981 -3.28871,12.70753 -6.19762,8.75116 -1.99324,-2.71096 3.66253,-13.34311 6.19762,-8.75116 m -7.04447,18.24492 c 1.63425,2.73356 -4.49669,12.07475 -6.77629,8.03138 -1.30621,-2.31687 4.09892,-12.50967 6.77629,-8.03138 m -8.39492,16.97253 c 1.71267,2.70061 -4.79678,11.54558 -7.17679,7.71531 -1.54154,-2.48079 4.66072,-11.68273 7.17679,-7.71531"
       style="fill:#483e37;stroke:none;stroke-width:0.450245"
       id="path1-6" />
  </g>
</svg>
