<?xml version="1.0" encoding="UTF-8" standalone="no"?>
<svg
   width="3935.1541"
   zoomAndPan="magnify"
   viewBox="0 0 2951.3655 603.22453"
   height="804.29938"
   preserveAspectRatio="xMidYMid"
   version="1.0"
   id="svg36"
   sodipodi:docname="WatotoCare Logo Design File Original source.svg"
   xml:space="preserve"
   inkscape:export-filename="../Documents/Projects/Watoto Care Files/watotocare logo landscape.svg"
   inkscape:export-xdpi="72"
   inkscape:export-ydpi="72"
   inkscape:version="1.3 (0e150ed, 2023-07-21)"
   xmlns:inkscape="http://www.inkscape.org/namespaces/inkscape"
   xmlns:sodipodi="http://sodipodi.sourceforge.net/DTD/sodipodi-0.dtd"
   xmlns="http://www.w3.org/2000/svg"
   xmlns:svg="http://www.w3.org/2000/svg"><sodipodi:namedview
     id="namedview36"
     pagecolor="#ffffff"
     bordercolor="#000000"
     borderopacity="0.25"
     inkscape:showpageshadow="2"
     inkscape:pageopacity="0.0"
     inkscape:pagecheckerboard="false"
     inkscape:deskcolor="#d1d1d1"
     inkscape:zoom="0.28084703"
     inkscape:cx="1826.6172"
     inkscape:cy="1452.7481"
     inkscape:window-width="2560"
     inkscape:window-height="1387"
     inkscape:window-x="0"
     inkscape:window-y="25"
     inkscape:window-maximized="1"
     inkscape:current-layer="svg36"><inkscape:page
       x="0"
       y="0"
       width="2951.3655"
       height="603.22455"
       id="page5"
       margin="0"
       bleed="0" /></sodipodi:namedview><defs
     id="defs1" /><path
     style="fill:#252422;fill-opacity:1;stroke-width:1.9421"
     d="m 369.61203,555.02851 c -99.14334,-15.17489 -143.69505,-82.87236 -90.72119,-137.85348 13.06861,-13.56389 20.39249,-29.68389 25.1928,-55.4503 11.50639,-61.76242 76.2395,-86.9634 155.37254,-60.48748 182.46438,61.04793 103.74224,283.42167 -89.84415,253.79126 z m 50.91716,-75.5883 c 11.10691,-5.27056 47.11491,-46.93058 55.66074,-64.39749 18.6233,-38.06471 -22.45247,-63.33774 -51.61728,-31.75899 -11.86529,12.8474 -12.17466,12.86681 -22.7306,1.42509 -44.51442,-48.24981 -79.91201,6.28634 -36.4774,56.1998 31.33685,36.01099 43.12485,44.2448 55.16454,38.53159 z M 205.47263,418.83486 c -24.45033,-3.25874 -80.79316,-44.00777 -86.24833,-62.37762 -8.56974,-28.8571 21.77761,-54.1968 47.6111,-39.7548 17.91438,10.01485 38.92777,26.66728 51.42619,40.75329 5.53422,6.23722 11.07078,12.46508 12.30344,13.83964 17.93476,19.99913 1.52591,51.08721 -25.0924,47.53949 z M 585.1553,333.16719 c -14.06711,-3.18925 -20.83374,-16.32709 -15.55921,-30.20854 2.6844,-7.06465 38.69398,-54.72651 51.85933,-68.64036 21.20289,-22.40846 54.14336,-11.51509 53.99288,17.8554 -0.13214,25.94297 -67.31268,86.20367 -90.293,80.9935 z m -89.33184,-68.06257 c -12.98493,-6.39775 -15.93379,-23.04895 -8.33264,-47.05265 13.70548,-43.28008 21.83083,-68.57773 23.85996,-74.28555 1.28164,-3.60502 2.47703,-7.21006 2.65639,-8.01118 0.64174,-2.8628 6.6599,-18.95892 8.16331,-21.83314 20.11771,-38.458145 72.13159,-15.276695 60.42724,26.93117 -1.2853,4.63497 -31.84428,75.32536 -42.21069,97.64333 -12.29682,26.47418 -27.00788,35.25782 -44.56357,26.60802 z m -195.13948,-1.56939 c -10.60001,-3.53336 -21.52688,-18.05101 -35.87808,-47.66812 -3.10542,-6.40895 -6.56568,-13.2913 -7.68898,-15.29409 -34.43762,-61.38996 -37.12064,-87.78609 -10.30462,-101.374825 22.83975,-11.57381 49.85618,7.278925 57.29581,39.982595 0.30044,1.32041 2.9553,8.62765 5.89991,16.23827 2.94463,7.61063 5.8675,15.80389 6.49538,18.20724 1.59292,6.09894 11.01524,33.1636 15.26651,43.85263 12.1333,30.50577 -4.37265,54.9607 -31.08593,46.0563 z m 102.60301,-25.1413 c -14.41004,-4.31453 -18.89009,-15.43039 -20.52689,-50.93012 -1.56535,-33.9486 -2.48125,-50.48817 -2.96444,-53.5224 -10.93872,-68.713775 3.45792,-105.560289 38.38203,-98.23488 24.85274,5.212939 35.01618,30.022285 28.7187,70.10498 -2.17904,13.86986 -7.33301,95.22527 -6.21688,98.13385 0.84443,2.20032 -2.4154,18.40964 -4.46879,22.22126 -5.67094,10.52714 -20.36997,15.98609 -32.92373,12.22731 z"
     id="path36"
     sodipodi:nodetypes="sssssssssssssssssssscssssccssssscsssccssscsssss" /><path
     style="font-size:501.706px;font-family:Fredoka;-inkscape-font-specification:'Fredoka, @wght=534';font-variation-settings:'wght' 534;text-align:center;letter-spacing:0px;word-spacing:0px;text-anchor:middle;fill:#eb5e28;stroke-width:1.17495;image-rendering:optimizeQuality"
     d="m 2032.7358,413.33642 c -7.3583,0 -12.8779,1.16994 -16.5571,3.51123 -3.6792,2.34129 -6.187,5.68607 -7.5249,10.03418 -1.0034,4.01365 -1.6724,9.03081 -2.0068,15.05127 -0.3345,10.70305 1.6723,18.22952 6.0205,22.57764 4.3481,4.34811 10.8697,6.52148 19.5659,6.52148 7.0239,0 12.3755,-1.16994 16.0547,-3.51123 3.6791,-2.34129 6.187,-5.51956 7.5249,-9.5332 1.3379,-4.34812 2.0068,-9.53178 2.0068,-15.55225 0,-10.36858 -1.8389,-17.72708 -5.5181,-22.07519 -3.6791,-4.68259 -10.2007,-7.02393 -19.5659,-7.02393 z"
     id="path35" /><path
     style="font-size:501.706px;font-family:Fredoka;-inkscape-font-specification:'Fredoka, @wght=534';font-variation-settings:'wght' 534;text-align:center;letter-spacing:0px;word-spacing:0px;text-anchor:middle;fill:#252422;fill-opacity:1;stroke-width:1.17495;image-rendering:optimizeQuality"
     d="m 2416.3081,225.69873 c -7.3584,0 -12.878,1.67238 -16.5571,5.01709 -3.3447,3.01023 -5.5181,8.02739 -6.5215,15.05127 l 0.5009,4.01367 c -2.0068,-4.01364 -5.0171,-7.69289 -9.0307,-11.0376 -4.0137,-3.67917 -9.1973,-6.52296 -15.5523,-8.52978 -6.0204,-2.3413 -13.3789,-3.51123 -22.0752,-3.51123 -10.3685,0 -19.7339,3.01029 -28.0957,9.03076 -8.3617,5.68599 -15.3857,13.87996 -21.0717,24.58301 -5.686,10.36858 -10.0342,22.91074 -13.0445,37.62744 -3.0102,14.71669 -4.5146,30.93957 -4.5146,48.6665 0,18.39587 1.5044,35.11827 4.5146,50.16943 3.0103,15.05117 7.3585,28.09578 13.0445,39.1333 5.686,10.70305 12.5435,19.06499 20.5708,25.08545 8.3617,5.686 17.8936,8.52979 28.5966,8.52979 10.3686,0 18.3961,-1.33791 24.0821,-4.01367 6.0204,-2.67577 10.7031,-6.02054 14.0478,-10.03418 3.6792,-4.01365 6.5215,-8.02738 8.5283,-12.04102 l -0.5009,7.5249 c 0,6.02047 2.0068,10.70315 6.0205,14.04785 4.3481,3.34471 10.0342,5.01709 17.0581,5.01709 7.3583,0 12.71,-1.00343 16.0547,-3.01025 3.3447,-2.00682 5.518,-4.84915 6.5215,-8.52832 1.0034,-4.01364 1.5058,-8.52982 1.5058,-13.54687 V 252.28857 c 0,-5.35152 -0.5024,-10.03421 -1.5058,-14.04785 -1.0035,-4.01364 -3.1768,-7.02394 -6.5215,-9.03076 -3.3447,-2.34129 -8.6964,-3.51123 -16.0547,-3.51123 z m -57.1948,47.15918 c 10.0341,0 17.2246,3.17826 21.5727,9.5332 4.3481,6.35494 7.0239,15.05135 8.0274,26.08887 1.0034,11.03752 1.5058,24.08213 1.5058,39.1333 0,15.05116 -0.5024,28.26228 -1.5058,39.63428 -0.669,11.37199 -3.1768,20.2349 -7.5249,26.58984 -4.0137,6.02046 -11.0377,9.03076 -21.0718,9.03076 -6.6894,0 -12.3755,-3.0103 -17.0581,-9.03076 -4.6826,-6.35494 -8.3619,-15.04988 -11.0376,-26.0874 -2.3413,-11.03752 -3.5113,-24.08214 -3.5113,-39.1333 0,-15.72011 1.17,-29.0992 3.5113,-40.13672 2.6757,-11.37199 6.1885,-20.0684 10.5366,-26.08887 4.6826,-6.35494 10.2007,-9.5332 16.5557,-9.5332 z"
     id="path34" /><path
     style="font-size:501.706px;font-family:Fredoka;-inkscape-font-specification:'Fredoka, @wght=534';font-variation-settings:'wght' 534;text-align:center;letter-spacing:0px;word-spacing:0px;text-anchor:middle;fill:#252422;fill-opacity:1;stroke-width:1.17495;image-rendering:optimizeQuality"
     d="m 1216.2583,225.69873 c -7.3584,0 -12.8765,1.67238 -16.5557,5.01709 -3.3447,3.01023 -5.5195,8.02739 -6.5229,15.05127 l 0.5024,4.01367 c -2.0068,-4.01364 -5.0171,-7.69289 -9.0307,-11.0376 -4.0137,-3.67917 -9.1988,-6.52296 -15.5538,-8.52978 -6.0204,-2.3413 -13.3789,-3.51123 -22.0751,-3.51123 -10.3686,0 -19.734,3.01029 -28.0958,9.03076 -8.3617,5.68599 -15.3857,13.87996 -21.0717,24.58301 -5.686,10.36858 -10.0328,22.91074 -13.043,37.62744 -3.0102,14.71669 -4.5161,30.93957 -4.5161,48.6665 0,18.39587 1.5059,35.11827 4.5161,50.16943 3.0102,15.05117 7.357,28.09578 13.043,39.1333 5.686,10.70305 12.5435,19.06499 20.5708,25.08545 8.3617,5.686 17.8936,8.52979 28.5967,8.52979 10.3685,0 18.396,-1.33791 24.082,-4.01367 6.0204,-2.67577 10.7031,-6.02054 14.0478,-10.03418 3.6792,-4.01365 6.523,-8.02738 8.5298,-12.04102 l -0.5024,7.5249 c 0,6.02047 2.0068,10.70315 6.0205,14.04785 4.3481,3.34471 10.0342,5.01709 17.0581,5.01709 7.3583,0 12.71,-1.00343 16.0547,-3.01025 3.3447,-2.00682 5.5181,-4.84915 6.5215,-8.52832 1.0034,-4.01364 1.5058,-8.52982 1.5058,-13.54687 V 252.28857 c 0,-5.35152 -0.5024,-10.03421 -1.5058,-14.04785 -1.0034,-4.01364 -3.1768,-7.02394 -6.5215,-9.03076 -3.3447,-2.34129 -8.6964,-3.51123 -16.0547,-3.51123 z m -57.1948,47.15918 c 10.0341,0 17.2261,3.17826 21.5742,9.5332 4.3481,6.35494 7.0239,15.05135 8.0273,26.08887 1.0034,11.03752 1.5044,24.08213 1.5044,39.1333 0,15.05116 -0.501,28.26228 -1.5044,39.63428 -0.6689,11.37199 -3.1782,20.2349 -7.5263,26.58984 -4.0137,6.02046 -11.0377,9.03076 -21.0718,9.03076 -6.6894,0 -12.3755,-3.0103 -17.0581,-9.03076 -4.6826,-6.35494 -8.3619,-15.04988 -11.0376,-26.0874 -2.3413,-11.03752 -3.5112,-24.08214 -3.5112,-39.1333 0,-15.72011 1.1699,-29.0992 3.5112,-40.13672 2.6757,-11.37199 6.1885,-20.0684 10.5366,-26.08887 4.6826,-6.35494 10.2007,-9.5332 16.5557,-9.5332 z"
     id="path33" /><path
     style="font-size:501.706px;font-family:Fredoka;-inkscape-font-specification:'Fredoka, @wght=534';font-variation-settings:'wght' 534;text-align:center;letter-spacing:0px;word-spacing:0px;text-anchor:middle;fill:#252422;fill-opacity:1;stroke-width:1.17495;image-rendering:optimizeQuality"
     d="m 2722.8047,225.19629 c -18.7304,0 -34.2828,5.35163 -46.6582,16.05468 -12.3754,10.36858 -21.7408,24.75111 -28.0957,43.14698 -6.0205,18.39586 -9.0308,39.13346 -9.0308,62.21191 0,17.05799 1.3379,33.2794 4.0137,48.66504 3.0102,15.05116 7.6929,28.43026 14.0478,40.13672 6.6894,11.70646 15.5538,20.90385 26.5913,27.59326 11.0375,6.68941 24.4152,10.03418 40.1353,10.03418 11.372,0 22.2432,-1.67239 32.6118,-5.01709 10.3686,-3.3447 18.7305,-7.69291 25.0854,-13.04444 6.6895,-5.35152 10.0342,-10.36868 10.0342,-15.05126 0,-3.01024 -0.1679,-5.35158 -0.5024,-7.02393 -0.3345,-2.00682 -1.5044,-4.51467 -3.5112,-7.5249 -1.6724,-3.67918 -3.8472,-6.52297 -6.523,-8.52979 -2.3413,-2.00682 -5.3516,-3.01025 -9.0308,-3.01025 -3.0102,0 -5.686,0.50245 -8.0273,1.50586 -2.3413,1.00341 -4.6826,2.34132 -7.0239,4.01367 -2.3413,1.67235 -5.0171,3.34474 -8.0274,5.01709 -2.6757,1.33788 -6.0205,2.50782 -10.0342,3.51123 -4.0136,1.00341 -8.6963,1.50586 -14.0478,1.50586 -6.3549,0 -12.3755,-2.50931 -18.0615,-7.52637 -5.686,-5.01705 -10.2007,-12.37555 -13.5454,-22.07519 -3.3447,-9.69964 -4.6826,-21.23838 -4.0137,-34.61719 h 66.2256 c 12.0409,0 21.4063,-3.84576 28.0957,-11.53857 7.0239,-8.02729 10.5351,-20.57092 10.5351,-37.62891 0,-10.70305 -1.5044,-21.40632 -4.5146,-32.10937 -2.6758,-10.70306 -7.024,-20.40143 -13.0444,-29.09766 -5.686,-9.0307 -13.0445,-16.22269 -22.0752,-21.57422 -9.0307,-5.35152 -19.5675,-8.02734 -31.6084,-8.02734 z m 0,43.14697 c 6.0204,0 11.0376,2.34134 15.0512,7.02392 4.3481,4.34812 7.3584,10.20074 9.0308,17.55909 2.0068,7.02387 3.0102,14.88482 3.0102,23.58105 0,7.69282 -1.0034,12.20753 -3.0102,13.54541 -2.0068,1.33788 -6.0206,2.00684 -12.041,2.00684 h -46.1572 c -0.3345,-12.04093 0.6689,-22.91071 3.0102,-32.61035 2.6758,-9.69964 6.6895,-17.22612 12.041,-22.57764 5.3515,-5.686 11.7066,-8.52832 19.065,-8.52832 z"
     id="path32" /><path
     style="font-size:501.706px;font-family:Fredoka;-inkscape-font-specification:'Fredoka, @wght=534';font-variation-settings:'wght' 534;text-align:center;letter-spacing:0px;word-spacing:0px;text-anchor:middle;fill:#252422;fill-opacity:1;stroke-width:1.17495;image-rendering:optimizeQuality"
     d="m 2180.7656,225.19629 c -13.7133,0 -25.921,3.01029 -36.624,9.03076 -10.3686,5.68599 -19.065,14.04793 -26.0889,25.08545 -7.0239,11.03752 -12.3755,24.08213 -16.0547,39.1333 -3.3447,14.71669 -5.0171,31.44056 -5.0171,50.1709 0,18.39586 1.6724,35.11826 5.0171,50.16943 3.6792,15.05116 9.0308,28.09578 16.0547,39.1333 7.3584,10.70305 16.2213,19.06498 26.5899,25.08545 10.703,5.68599 23.0787,8.52978 37.1264,8.52978 7.6928,0 14.8848,-1.1714 21.5742,-3.51269 6.6894,-2.00682 12.5421,-4.84915 17.5591,-8.52832 5.3515,-4.01365 9.5318,-8.52982 12.542,-13.54688 4.6826,-3.67917 7.8609,-7.02394 9.5332,-10.03418 1.6724,-3.3447 2.0068,-6.68947 1.0034,-10.03418 -0.6689,-3.3447 -2.5093,-7.02395 -5.5195,-11.03759 -3.6792,-4.68259 -7.1904,-8.36184 -10.5352,-11.0376 -3.3447,-2.67576 -6.6894,-3.51122 -10.0341,-2.50781 -3.0103,0.33447 -5.8541,1.5044 -8.5298,3.51123 -2.6758,1.67235 -5.1836,3.84718 -7.5249,6.52295 -1.6724,2.34129 -3.6792,4.51466 -6.0205,6.52148 -2.3413,2.00682 -4.8492,3.5127 -7.5249,4.51611 -2.6758,0.66894 -5.5196,1.00342 -8.5298,1.00342 -8.3618,0 -15.0513,-3.17827 -20.0684,-9.5332 -4.6826,-6.35494 -8.0273,-15.04988 -10.0342,-26.0874 -2.0068,-11.37199 -3.0102,-24.41661 -3.0102,-39.1333 0,-15.05117 1.0034,-28.09578 3.0102,-39.1333 2.0069,-11.372 5.5196,-20.23638 10.5367,-26.59131 5.017,-6.35494 11.8731,-9.53174 20.5693,-9.53174 3.6792,0 6.6895,0.66895 9.0308,2.00683 2.6757,1.00342 5.0171,2.34133 7.0239,4.01368 2.3413,1.67235 4.6826,3.84572 7.0239,6.52148 2.3413,2.34129 5.0171,4.85061 8.0274,7.52637 5.686,3.67917 12.2075,2.34126 19.5659,-4.01367 3.0102,-2.00683 5.3516,-4.01369 7.0239,-6.02051 2.0068,-2.34129 3.5127,-4.85061 4.5161,-7.52637 1.3379,-4.68258 0.8355,-8.86282 -1.5058,-12.54199 -2.3413,-4.01364 -5.0172,-7.52492 -8.0274,-10.53516 -2.6757,-4.68258 -6.6895,-9.03079 -12.041,-13.04443 -5.0171,-4.34811 -11.0362,-7.86086 -18.0601,-10.53662 -6.6894,-2.67576 -14.2158,-4.01367 -22.5776,-4.01367 z"
     id="path31" /><path
     style="font-size:501.706px;font-family:Fredoka;-inkscape-font-specification:'Fredoka, @wght=534';font-variation-settings:'wght' 534;text-align:center;letter-spacing:0px;word-spacing:0px;text-anchor:middle;fill:#252422;fill-opacity:1;stroke-width:1.17495;image-rendering:optimizeQuality"
     d="m 1881.8144,224.19287 c -13.7132,0 -25.9209,3.01029 -36.624,9.03076 -10.703,5.686 -19.566,13.88142 -26.5898,24.58447 -7.0239,10.70305 -12.3755,23.7462 -16.0547,39.13184 -3.3447,15.38563 -5.0171,32.77845 -5.0171,52.17773 0,19.73375 1.8389,37.29308 5.5181,52.67871 4.0136,15.38564 9.6997,28.43025 17.0581,39.1333 7.3583,10.36858 16.2212,18.39604 26.5898,24.08203 10.7031,5.35153 22.7442,8.02735 36.1231,8.02735 13.0443,0 24.751,-2.67582 35.1196,-8.02735 10.3686,-5.68599 19.2329,-13.71345 26.5913,-24.08203 7.3583,-10.36858 12.8765,-23.24522 16.5557,-38.63086 4.0136,-15.7201 6.0205,-33.6139 6.0205,-53.68212 0,-26.08869 -3.1783,-48.33216 -9.5332,-66.72803 -6.0205,-18.39587 -15.3844,-32.61042 -28.0943,-42.64453 -12.7099,-10.03411 -28.5983,-15.05127 -47.6631,-15.05127 z m 0,45.15381 c 8.6963,0 15.7203,3.01029 21.0718,9.03076 5.3515,6.02046 9.3653,14.88338 12.041,26.58984 2.6758,11.37199 4.0137,25.58801 4.0137,42.646 0,17.72693 -1.5044,32.61043 -4.5146,44.65136 -2.6758,12.04094 -6.6895,21.07182 -12.0411,27.09229 -5.3515,6.02047 -12.209,9.03076 -20.5708,9.03076 -7.6928,0 -14.2144,-3.01029 -19.5659,-9.03076 -5.3515,-6.02047 -9.5332,-14.88338 -12.5434,-26.58984 -2.6758,-12.04094 -4.0137,-26.92591 -4.0137,-44.65284 0,-16.72351 1.3379,-30.93806 4.0137,-42.64453 2.6757,-12.04093 6.5229,-21.07182 11.54,-27.09228 5.3515,-6.02047 12.2076,-9.03076 20.5693,-9.03076 z"
     id="path30" /><path
     style="font-size:501.706px;font-family:Fredoka;-inkscape-font-specification:'Fredoka, @wght=534';font-variation-settings:'wght' 534;text-align:center;letter-spacing:0px;word-spacing:0px;text-anchor:middle;fill:#252422;fill-opacity:1;stroke-width:1.17495;image-rendering:optimizeQuality"
     d="m 1529.2134,224.19287 c -13.7133,0 -25.9225,3.01029 -36.6255,9.03076 -10.7031,5.686 -19.566,13.88142 -26.5899,24.58447 -7.0238,10.70305 -12.3755,23.7462 -16.0547,39.13184 -3.3447,15.38563 -5.017,32.77845 -5.017,52.17773 0,19.73375 1.8388,37.29308 5.518,52.67871 4.0137,15.38564 9.6998,28.43025 17.0581,39.1333 7.3584,10.36858 16.2228,18.39604 26.5913,24.08203 10.7031,5.35153 22.7443,8.02735 36.1231,8.02735 13.0443,0 24.7496,-2.67582 35.1181,-8.02735 10.3686,-5.68599 19.233,-13.71345 26.5914,-24.08203 7.3583,-10.36858 12.8764,-23.24522 16.5556,-38.63086 4.0137,-15.7201 6.0205,-33.6139 6.0205,-53.68212 0,-26.08869 -3.1768,-48.33216 -9.5317,-66.72803 -6.0205,-18.39587 -15.3858,-32.61042 -28.0957,-42.64453 -12.7099,-10.03411 -28.5968,-15.05127 -47.6616,-15.05127 z m 0,45.15381 c 8.6962,0 15.7202,3.01029 21.0717,9.03076 5.3516,6.02046 9.3638,14.88338 12.0396,26.58984 2.6758,11.37199 4.0137,25.58801 4.0137,42.646 0,17.72693 -1.5045,32.61043 -4.5147,44.65136 -2.6757,12.04094 -6.6895,21.07182 -12.041,27.09229 -5.3515,6.02047 -12.2076,9.03076 -20.5693,9.03076 -7.6929,0 -14.2159,-3.01029 -19.5674,-9.03076 -5.3515,-6.02047 -9.5318,-14.88338 -12.542,-26.58984 -2.6758,-12.04094 -4.0137,-26.92591 -4.0137,-44.65284 0,-16.72351 1.3379,-30.93806 4.0137,-42.64453 2.6758,-12.04093 6.5215,-21.07182 11.5386,-27.09228 5.3515,-6.02047 12.209,-9.03076 20.5708,-9.03076 z"
     id="path29" /><path
     style="font-size:501.706px;font-family:Fredoka;-inkscape-font-specification:'Fredoka, @wght=534';font-variation-settings:'wght' 534;text-align:center;letter-spacing:0px;word-spacing:0px;text-anchor:middle;fill:#252422;fill-opacity:1;stroke-width:1.17495;image-rendering:optimizeQuality"
     d="m 2584.1396,223.18945 c -4.0136,0 -7.8594,0.66896 -11.5385,2.00684 -3.3448,1.00341 -6.6895,2.84377 -10.0342,5.51953 -3.0103,2.34129 -5.8526,5.35159 -8.5283,9.03076 -2.3413,3.67917 -4.1817,7.85941 -5.5196,12.54199 l 1.0034,-6.02051 c 0,-3.67917 -0.5009,-7.02394 -1.5044,-10.03418 -1.0034,-3.01023 -3.3447,-5.35157 -7.0239,-7.02392 -3.3447,-2.00682 -8.5298,-3.01026 -15.5537,-3.01026 -7.3583,0 -12.71,1.00344 -16.0547,3.01026 -3.3447,1.67235 -5.5181,4.34817 -6.5215,8.02734 -1.0034,3.67918 -1.5058,8.19535 -1.5058,13.54688 V 445.4458 c 0,4.68258 0.3345,9.03079 1.0034,13.04443 1.0034,4.01364 3.1782,7.02394 6.5229,9.03076 3.6792,2.00682 9.0309,3.01026 16.0547,3.01026 7.6928,0 13.211,-1.00344 16.5557,-3.01026 3.6792,-1.67235 6.0205,-4.34817 7.0239,-8.02734 1.0034,-4.01365 1.5059,-8.36185 1.5059,-13.04444 V 293.92968 c 0,-3.3447 0.3345,-6.5215 1.0034,-9.53173 0.6689,-3.01024 1.6724,-5.51955 3.0103,-7.52637 1.6723,-2.34129 3.5112,-4.18019 5.518,-5.51807 2.0068,-1.33788 4.5162,-2.00683 7.5264,-2.00683 3.3447,0 6.187,0.33447 8.5283,1.00342 2.3413,0.66894 4.3482,1.67237 6.0205,3.01025 1.6724,1.00341 3.5113,1.83887 5.5181,2.50781 2.0068,0.66894 4.5161,1.00342 7.5263,1.00342 5.686,0 10.3687,-3.1768 14.0479,-9.53174 3.6792,-6.68941 5.5181,-14.04791 5.5181,-22.07519 0,-3.67918 -0.8355,-6.68947 -2.5078,-9.03077 -1.3379,-2.34129 -3.1783,-4.34815 -5.5196,-6.0205 -2.0068,-1.67235 -4.5146,-3.01026 -7.5249,-4.01368 -2.6757,-1.00341 -5.3516,-1.67236 -8.0273,-2.00683 -2.3413,-0.66894 -4.5162,-1.00342 -6.523,-1.00342 z"
     id="path28" /><path
     style="font-size:501.706px;font-family:Fredoka;-inkscape-font-specification:'Fredoka, @wght=534';font-variation-settings:'wght' 534;text-align:center;letter-spacing:0px;word-spacing:0px;text-anchor:middle;fill:#252422;fill-opacity:1;stroke-width:1.17495;image-rendering:optimizeQuality"
     d="m 1024.7212,223.18945 c -3.5956,-0.16723 -6.898,0.33521 -9.9082,1.50586 -5.686,2.00682 -9.5318,7.69294 -11.5386,17.05811 L 979.69335,387.75 950.59423,242.25439 c -0.33447,-3.67917 -1.50441,-6.68947 -3.51123,-9.03076 -2.00682,-2.67576 -4.68264,-4.68263 -8.02734,-6.02051 -3.01024,-1.67235 -7.52495,-2.50781 -13.54541,-2.50781 -5.35153,0 -9.69973,0.66896 -13.04444,2.00684 -3.3447,1.33788 -6.02052,3.34474 -8.02734,6.0205 -1.67235,2.67577 -2.84376,6.02054 -3.5127,10.03418 L 871.32568,386.74658 847.24364,238.74316 c -1.67235,-8.69623 -5.3516,-13.54688 -11.03759,-14.55029 -5.686,-1.33788 -12.71002,-0.50096 -21.07178,2.50928 -5.35153,2.00682 -9.36525,4.18019 -12.04102,6.52148 -2.34129,2.34129 -3.6792,5.35159 -4.01367,9.03076 -0.33447,3.34471 0.33449,8.19536 2.00684,14.5503 l 44.15039,195.66503 c 1.00341,3.01024 2.34132,5.85256 4.01367,8.52832 1.67235,2.34129 4.01369,4.34816 7.02393,6.02051 3.01023,1.67235 7.35843,2.50928 13.04443,2.50928 5.35152,0 9.53176,-0.83693 12.54199,-2.50928 3.3447,-1.67235 5.68605,-4.01369 7.02393,-7.02393 1.67235,-3.3447 3.17823,-7.19046 4.51611,-11.53857 l 32.10938,-145.4956 32.61035,145.4956 c 1.00341,3.67917 2.34132,7.19045 4.01367,10.53516 2.00682,3.3447 4.51467,5.85401 7.5249,7.52636 3.3447,2.00683 7.5264,3.01026 12.54346,3.01026 5.35152,0 9.53176,-0.83693 12.54199,-2.50928 3.01023,-1.67235 5.35158,-3.67922 7.02388,-6.02051 1.6724,-2.67576 3.0103,-5.35158 4.0137,-8.02734 l 44.6514,-196.16601 c 2.6757,-8.69623 2.8437,-15.21927 0.5024,-19.56739 -2.0068,-4.68258 -6.856,-8.52834 -14.5488,-11.53857 -4.1809,-1.50512 -8.0705,-2.34204 -11.666,-2.50928 z"
     id="path27" /><path
     style="font-size:501.706px;font-family:Fredoka;-inkscape-font-specification:'Fredoka, @wght=534';font-variation-settings:'wght' 534;text-align:center;letter-spacing:0px;word-spacing:0px;text-anchor:middle;fill:#252422;fill-opacity:1;stroke-width:1.17495;image-rendering:optimizeQuality"
     d="m 1699.0415,143.9209 c -7.3584,0 -12.71,1.00343 -16.0547,3.01025 -3.3447,2.00682 -5.5195,4.84915 -6.5229,8.52832 -1.0035,3.3447 -1.5044,7.69291 -1.5044,13.04443 v 63.33252 l -8.0274,-0.11718 c -7.0239,-0.33447 -12.209,1.50442 -15.5537,5.51806 -3.3447,3.67918 -5.0171,9.53326 -5.0171,17.56055 0,8.69623 1.3379,15.04983 4.0137,19.06348 3.0102,3.67917 8.0274,5.35156 15.0513,5.01709 l 9.5332,-0.13477 v 125.56201 c 0,10.70305 1.0034,20.23492 3.0102,28.59668 2.3413,8.02729 5.8526,14.8848 10.5352,20.5708 4.6826,5.686 10.7031,9.86623 18.0615,12.54199 7.6928,3.01024 16.8917,4.51612 27.5947,4.51612 4.3481,0 8.1939,-0.50245 11.5386,-1.50586 3.6792,-0.66894 6.5215,-2.67581 8.5283,-6.02051 2.0068,-3.67918 3.0103,-9.19732 3.0103,-16.55567 0,-6.6894 -1.0035,-11.54006 -3.0103,-14.55029 -1.6723,-3.3447 -4.1802,-5.51807 -7.5249,-6.52148 -3.0102,-1.00341 -6.6895,-1.50586 -11.0376,-1.50586 -2.0068,0 -3.8457,-0.33448 -5.5181,-1.00342 -1.3378,-0.66894 -2.6757,-1.83888 -4.0136,-3.51123 -1.0034,-1.67235 -1.6724,-3.84719 -2.0069,-6.52295 -0.3344,-3.01023 -0.5024,-6.52151 -0.5024,-10.53516 V 278.97217 l 15.5522,0.40869 c 5.0171,0 9.1988,-0.50245 12.5435,-1.50586 3.3447,-1.00341 5.8525,-3.34329 7.5249,-7.02246 1.6724,-3.67918 2.5093,-9.03081 2.5093,-16.05469 0,-7.02388 -1.0035,-12.20901 -3.0103,-15.55371 -2.0068,-3.67918 -4.8506,-6.02052 -8.5298,-7.02393 -3.6791,-1.33788 -8.0259,-1.83886 -13.0429,-1.50439 l -13.5469,0.56396 v -63.27832 c 0,-4.68258 -0.501,-8.86282 -1.5044,-12.54199 -1.0034,-3.67917 -3.3448,-6.5215 -7.0239,-8.52832 -3.3447,-2.00682 -8.6964,-3.01025 -16.0547,-3.01025 z"
     id="path26" /><path
     style="font-size:501.706px;font-family:Fredoka;-inkscape-font-specification:'Fredoka, @wght=534';font-variation-settings:'wght' 534;text-align:center;letter-spacing:0px;word-spacing:0px;text-anchor:middle;fill:#252422;fill-opacity:1;stroke-width:1.17495;image-rendering:optimizeQuality"
     d="m 1342.4385,143.9209 c -7.3584,0 -12.71,1.00343 -16.0547,3.01025 -3.3447,2.00682 -5.5181,4.84915 -6.5215,8.52832 -1.0034,3.3447 -1.5059,7.69291 -1.5059,13.04443 v 63.33252 l -8.0273,-0.11718 c -7.0239,-0.33447 -12.2076,1.50442 -15.5523,5.51806 -3.3447,3.67918 -5.017,9.53326 -5.017,17.56055 0,8.69623 1.3379,15.04983 4.0136,19.06348 3.0103,3.67917 8.0274,5.35156 15.0513,5.01709 l 9.5317,-0.13477 v 125.56201 c 0,10.70305 1.0035,20.23492 3.0103,28.59668 2.3413,8.02729 5.854,14.8848 10.5366,20.5708 4.6826,5.686 10.7032,9.86623 18.0615,12.54199 7.6928,3.01024 16.8902,4.51612 27.5933,4.51612 4.3481,0 8.1953,-0.50245 11.54,-1.50586 3.6792,-0.66894 6.5215,-2.67581 8.5284,-6.02051 2.0068,-3.67918 3.0102,-9.19732 3.0102,-16.55567 0,-6.6894 -1.0034,-11.54006 -3.0102,-14.55029 -1.6724,-3.3447 -4.1802,-5.51807 -7.525,-6.52148 -3.0102,-1.00341 -6.6894,-1.50586 -11.0375,-1.50586 -2.0069,0 -3.8472,-0.33448 -5.5196,-1.00342 -1.3379,-0.66894 -2.6758,-1.83888 -4.0137,-3.51123 -1.0034,-1.67235 -1.6723,-3.84719 -2.0068,-6.52295 -0.3345,-3.01023 -0.501,-6.52151 -0.501,-10.53516 V 278.97217 l 15.5523,0.40869 c 5.017,0 9.1987,-0.50245 12.5434,-1.50586 3.3447,-1.00341 5.8526,-3.34329 7.5249,-7.02246 1.6724,-3.67918 2.5093,-9.03081 2.5093,-16.05469 0,-7.02388 -1.0034,-12.20901 -3.0102,-15.55371 -2.0069,-3.67918 -4.8506,-6.02052 -8.5298,-7.02393 -3.6792,-1.33788 -8.0274,-1.83886 -13.0445,-1.50439 l -13.5454,0.56396 v -63.27832 c 0,-4.68258 -0.5024,-8.86282 -1.5058,-12.54199 -1.0034,-3.67917 -3.3448,-6.5215 -7.0239,-8.52832 -3.3448,-2.00682 -8.6964,-3.01025 -16.0547,-3.01025 z"
     id="path9" /><path
     d="m 159.7626,528.23214 c -1.93589,-1.64848 -3.11455,-4.60736 -3.33674,-8.37532 -0.66749,-11.32036 -6.26328,-16.75067 -17.26085,-16.75067 -5.37653,0 -11.68973,-4.82607 -11.68973,-8.93592 0,-3.28399 6.28388,-7.04684 13.32887,-7.98137 10.00068,-1.32664 13.5658,-5.18163 15.63007,-16.90098 0.86656,-4.92025 2.40704,-9.47358 3.42315,-10.1185 5.84671,-3.71101 12.77187,1.35857 12.77187,9.34976 0,10.87183 7.69268,18.56464 18.56459,18.56464 4.83623,0 10.56699,3.63539 10.56699,6.70342 0,4.46904 -6.83796,9.31895 -13.13892,9.31895 -10.51088,0 -15.99266,6.19661 -15.99266,18.07787 0,8.08543 -7.08868,11.9685 -12.86664,7.04812 z m 484.79836,-0.36413 c -1.78825,-1.78828 -2.91312,-4.85527 -2.91312,-7.94265 0,-10.59229 -6.19946,-16.81921 -16.74465,-16.81921 -6.32338,0 -12.88939,-5.59641 -11.44056,-9.75101 1.38064,-3.95866 4.94728,-6.27136 9.67202,-6.27136 10.52528,0 18.51319,-8.71372 18.51319,-20.19585 0,-4.94265 3.98902,-8.93574 8.92683,-8.93574 5.05981,0 7.09552,2.60745 7.09552,9.08883 0,12.10178 7.43975,20.04276 18.77822,20.04276 7.83443,0 11.42173,4.10015 8.90434,10.17741 -1.86089,4.49289 -3.40331,5.20774 -13.82215,6.40591 -6.09592,0.70102 -12.29413,6.05118 -12.52236,10.80876 -0.39988,8.34038 -0.97758,10.57941 -3.42814,13.28728 -3.44416,3.80577 -7.28174,3.84227 -11.01914,0.10488 z"
     style="fill:#eb5e28;fill-opacity:1;stroke-width:1.9421"
     id="path1-6" /></svg>
