<?xml version="1.0" encoding="UTF-8" standalone="no"?>
<svg
   width="838.48633"
   zoomAndPan="magnify"
   viewBox="0 0 628.86474 594.07649"
   height="792.10199"
   preserveAspectRatio="xMidYMid"
   version="1.0"
   id="svg36"
   sodipodi:docname="WatotoCare Logo Design File Original source.svg"
   xml:space="preserve"
   inkscape:export-filename="../Documents/Projects/Watoto Care Files/watotocare logo landscape.svg"
   inkscape:export-xdpi="72"
   inkscape:export-ydpi="72"
   inkscape:version="1.3 (0e150ed, 2023-07-21)"
   xmlns:inkscape="http://www.inkscape.org/namespaces/inkscape"
   xmlns:sodipodi="http://sodipodi.sourceforge.net/DTD/sodipodi-0.dtd"
   xmlns="http://www.w3.org/2000/svg"
   xmlns:svg="http://www.w3.org/2000/svg"><sodipodi:namedview
     id="namedview36"
     pagecolor="#ffffff"
     bordercolor="#000000"
     borderopacity="0.25"
     inkscape:showpageshadow="2"
     inkscape:pageopacity="0.0"
     inkscape:pagecheckerboard="false"
     inkscape:deskcolor="#d1d1d1"
     inkscape:zoom="0.28084703"
     inkscape:cx="1826.6172"
     inkscape:cy="1452.7481"
     inkscape:window-width="2560"
     inkscape:window-height="1387"
     inkscape:window-x="0"
     inkscape:window-y="25"
     inkscape:window-maximized="1"
     inkscape:current-layer="svg36"><inkscape:page
       x="0"
       y="0"
       width="628.86475"
       height="594.07648"
       id="page6"
       margin="0"
       bleed="0"
       inkscape:export-filename="../agentfolio/public/landscape-logo.svg"
       inkscape:export-xdpi="72"
       inkscape:export-ydpi="72" /></sodipodi:namedview><defs
     id="defs1" /><path
     style="fill:#252422;fill-opacity:1;stroke-width:1.9421"
     d="m 278.62732,557.70457 c -99.14334,-15.1749 -143.69505,-82.8723 -90.72119,-137.8535 13.06861,-13.5639 20.39249,-29.6839 25.1928,-55.4503 11.50639,-61.7624 76.2395,-86.96333 155.37254,-60.4874 182.46438,61.0479 103.74224,283.4216 -89.84415,253.7912 z m 50.91716,-75.5883 c 11.10691,-5.2705 47.11491,-46.9306 55.66074,-64.3975 18.6233,-38.0647 -22.45247,-63.3377 -51.61728,-31.759 -11.86529,12.8474 -12.17466,12.8668 -22.7306,1.4251 -44.51442,-48.2498 -79.91201,6.2864 -36.4774,56.1998 31.33685,36.011 43.12485,44.2448 55.16454,38.5316 z m -215.05656,-60.6053 c -24.450329,-3.2588 -80.793149,-44.0078 -86.248319,-62.3777 -8.569736,-28.8571 21.7776,-54.1968 47.61109,-39.7548 17.91438,10.0149 38.927769,26.6673 51.426189,40.7533 5.53422,6.2373 11.07078,12.4651 12.30344,13.8397 17.93476,19.9991 1.52591,51.0872 -25.0924,47.5395 z m 379.68267,-85.6677 c -14.06711,-3.1893 -20.83374,-16.3271 -15.55921,-30.2085 2.6844,-7.0647 38.69398,-54.72653 51.85933,-68.64043 21.20289,-22.4085 54.14336,-11.5151 53.99288,17.8554 -0.13214,25.943 -67.31268,86.20373 -90.293,80.99353 z m -89.33184,-68.06263 c -12.98493,-6.3977 -15.93379,-23.0489 -8.33264,-47.0526 13.70548,-43.2801 21.83083,-68.5777 23.85996,-74.2856 1.28164,-3.605 2.47703,-7.21 2.65639,-8.0111 0.64174,-2.8628 6.6599,-18.959 8.16331,-21.8332 20.11771,-38.458101 72.13159,-15.2767 60.42724,26.9312 -1.2853,4.635 -31.84428,75.3253 -42.21069,97.6433 -12.29682,26.4742 -27.00788,35.2578 -44.56357,26.608 z m -195.13948,-1.5693 c -10.60001,-3.5334 -21.52688,-18.0511 -35.87808,-47.6682 -3.10542,-6.4089 -6.56568,-13.2913 -7.68898,-15.2941 -34.43762,-61.3899 -37.12064,-87.7861 -10.30462,-101.3748 22.83975,-11.573801 49.85618,7.2789 57.29581,39.9826 0.30044,1.3204 2.9553,8.6277 5.89991,16.2383 2.94463,7.6106 5.8675,15.8039 6.49538,18.2072 1.59292,6.099 11.01524,33.1636 15.26651,43.8526 12.1333,30.5058 -4.37265,54.9608 -31.08593,46.0564 z m 102.60301,-25.1413 c -14.41004,-4.3146 -18.89009,-15.4304 -20.52689,-50.9302 -1.56535,-33.9486 -2.48125,-50.4881 -2.96444,-53.5224 -10.93872,-68.713701 3.45792,-105.560301 38.38203,-98.234901 24.85274,5.213 35.01618,30.0223 28.7187,70.105001 -2.17904,13.8699 -7.33301,95.2253 -6.21688,98.1339 0.84443,2.2003 -2.4154,18.4096 -4.46879,22.2212 -5.67094,10.5272 -20.36997,15.9861 -32.92373,12.2274 z"
     id="path6"
     sodipodi:nodetypes="ssssssssssssssssscssscssssccsscsscsssccssscssss" /><path
     d="m 65.293321,549.67587 c -1.93589,-1.6485 -3.11455,-4.6074 -3.33674,-8.3753 -0.66749,-11.3204 -6.26328,-16.7507 -17.26085,-16.7507 -5.37652,0 -11.68972,-4.8261 -11.68972,-8.9359 0,-3.284 6.28388,-7.0469 13.32886,-7.9814 10.00068,-1.3266 13.5658,-5.1816 15.63007,-16.901 0.86656,-4.9202 2.40704,-9.4736 3.42315,-10.1185 5.84671,-3.711 12.77187,1.3586 12.77187,9.3498 0,10.8718 7.69268,18.5646 18.56459,18.5646 4.836229,0 10.566989,3.6354 10.566989,6.7034 0,4.4691 -6.83796,9.319 -13.138919,9.319 -10.51088,0 -15.99266,6.1966 -15.99266,18.0779 0,8.0854 -7.08868,11.9685 -12.86664,7.0481 z m 484.798359,-0.3641 c -1.78825,-1.7883 -2.91312,-4.8553 -2.91312,-7.9427 0,-10.5923 -6.19946,-16.8192 -16.74465,-16.8192 -6.32338,0 -12.88939,-5.5964 -11.44056,-9.751 1.38064,-3.9587 4.94728,-6.2714 9.67202,-6.2714 10.52528,0 18.51319,-8.7137 18.51319,-20.1958 0,-4.9427 3.98902,-8.9358 8.92683,-8.9358 5.05981,0 7.09552,2.6075 7.09552,9.0889 0,12.1017 7.43975,20.0427 18.77822,20.0427 7.83443,0 11.42173,4.1002 8.90434,10.1774 -1.86089,4.4929 -3.40331,5.2078 -13.82215,6.4059 -6.09592,0.7011 -12.29413,6.0512 -12.52236,10.8088 -0.39988,8.3404 -0.97758,10.5794 -3.42814,13.2873 -3.44416,3.8058 -7.28174,3.8423 -11.01914,0.1049 z"
     style="fill:#eb5e28;fill-opacity:1;stroke-width:1.9421"
     id="path1-1" /></svg>
